<?xml version="1.0" encoding="UTF-8" standalone="no"?>
<!DOCTYPE svg PUBLIC "-//W3C//DTD SVG 1.1//EN"
 "http://www.w3.org/Graphics/SVG/1.1/DTD/svg11.dtd">
<!-- Generated by graphviz version 7.1.0 (0)
 -->
<!-- Title: G Pages: 1 -->
<svg width="508pt" height="148pt"
 viewBox="0.00 0.00 507.54 148.29" xmlns="http://www.w3.org/2000/svg" xmlns:xlink="http://www.w3.org/1999/xlink">
<g id="graph0" class="graph" transform="scale(1 1) rotate(0) translate(4 144.29)">
<title>G</title>
<polygon fill="white" stroke="none" points="-4,4 -4,-144.29 503.54,-144.29 503.54,4 -4,4"/>
<!-- usr -->
<g id="node1" class="node">
<title>usr</title>
<polygon fill="none" stroke="black" points="144,-124.75 0,-124.75 0,-16.75 144,-16.75 144,-124.75"/>
<text text-anchor="middle" x="72" y="-67.05" font-family="Source Code Variable,sans-serif" font-size="14.00">User</text>
</g>
<!-- game -->
<g id="node2" class="node">
<title>game</title>
<ellipse fill="none" stroke="black" cx="430" cy="-70.75" rx="69.59" ry="69.59"/>
<text text-anchor="middle" x="430" y="-67.05" font-family="Source Code Variable,sans-serif" font-size="14.00">Game System</text>
</g>
<!-- usr&#45;&gt;game -->
<g id="edge1" class="edge">
<title>usr&#45;&gt;game</title>
<path fill="none" stroke="black" d="M144.45,-70.75C203.69,-70.75 287.41,-70.75 348.89,-70.75"/>
<polygon fill="black" stroke="black" points="348.58,-74.25 358.58,-70.75 348.58,-67.25 348.58,-74.25"/>
<text text-anchor="middle" x="252.23" y="-77.55" font-family="Source Code Variable,sans-serif" font-size="14.00">keyboard and mouse input</text>
</g>
<!-- game&#45;&gt;usr -->
<g id="edge2" class="edge">
<title>game&#45;&gt;usr</title>
<path fill="none" stroke="black" d="M373.11,-29.82C356.39,-19.97 337.52,-10.83 318.73,-5.75 290.2,1.97 214.29,1.84 185.73,-5.75 175.18,-8.55 164.59,-12.59 154.34,-17.3"/>
<polygon fill="black" stroke="black" points="153.05,-14.03 145.58,-21.55 156.11,-20.33 153.05,-14.03"/>
<text text-anchor="middle" x="252.23" y="-24.55" font-family="Source Code Variable,sans-serif" font-size="14.00">graphical output</text>
<text text-anchor="middle" x="252.23" y="-9.55" font-family="Source Code Variable,sans-serif" font-size="14.00"> audio output</text>
</g>
</g>
</svg>
