<?xml version="1.0" encoding="UTF-8" standalone="no"?>
<!DOCTYPE svg PUBLIC "-//W3C//DTD SVG 1.1//EN"
 "http://www.w3.org/Graphics/SVG/1.1/DTD/svg11.dtd">
<!-- Generated by graphviz version 7.1.0 (0)
 -->
<!-- Title: G Pages: 1 -->
<svg width="873pt" height="817pt"
 viewBox="0.00 0.00 873.34 817.00" xmlns="http://www.w3.org/2000/svg" xmlns:xlink="http://www.w3.org/1999/xlink">
<g id="graph0" class="graph" transform="scale(1 1) rotate(0) translate(4 813)">
<title>G</title>
<polygon fill="white" stroke="none" points="-4,4 -4,-813 869.34,-813 869.34,4 -4,4"/>
<!-- main -->
<g id="node1" class="node">
<title>main</title>
<polygon fill="none" stroke="black" points="581.95,-794 351.95,-794 351.95,-664 581.95,-664 581.95,-794"/>
<image xlink:href="mainmenu.png" width="230px" height="129.328px" preserveAspectRatio="xMinYMin meet" x="351.953" y="-793.664"/>
<text text-anchor="middle" x="466.95" y="-725.3" font-family="Source Code Variable,sans-serif" font-size="14.00">main</text>
<text text-anchor="middle" x="314.45" y="-797.8" font-family="Source Code Variable,sans-serif" font-size="14.00">Main Menu</text>
</g>
<!-- newgame -->
<g id="node2" class="node">
<title>newgame</title>
<polygon fill="none" stroke="black" points="829.95,-628 599.95,-628 599.95,-498 829.95,-498 829.95,-628"/>
<image xlink:href="newgamemenu.png" width="230px" height="129.328px" preserveAspectRatio="xMinYMin meet" x="599.953" y="-627.664"/>
<text text-anchor="middle" x="714.95" y="-559.3" font-family="Source Code Variable,sans-serif" font-size="14.00">newgame</text>
<text text-anchor="middle" x="562.45" y="-646.8" font-family="Source Code Variable,sans-serif" font-size="14.00">New Game </text>
<text text-anchor="middle" x="562.45" y="-631.8" font-family="Source Code Variable,sans-serif" font-size="14.00"> Menu</text>
</g>
<!-- main&#45;&gt;newgame -->
<g id="edge9" class="edge">
<title>main&#45;&gt;newgame</title>
<path fill="none" stroke="black" d="M557.65,-663.65C571.85,-654.16 586.69,-644.33 601.33,-634.71"/>
<polygon fill="black" stroke="black" points="603.2,-637.67 609.65,-629.26 599.36,-631.82 603.2,-637.67"/>
</g>
<!-- joingame -->
<g id="node3" class="node">
<title>joingame</title>
<polygon fill="none" stroke="black" points="333.95,-628 103.95,-628 103.95,-498 333.95,-498 333.95,-628"/>
<image xlink:href="joinmenu.png" width="230px" height="129.328px" preserveAspectRatio="xMinYMin meet" x="103.953" y="-627.664"/>
<text text-anchor="middle" x="218.95" y="-559.3" font-family="Source Code Variable,sans-serif" font-size="14.00">joingame</text>
<text text-anchor="middle" x="62.45" y="-646.8" font-family="Source Code Variable,sans-serif" font-size="14.00">Join Game </text>
<text text-anchor="middle" x="62.45" y="-631.8" font-family="Source Code Variable,sans-serif" font-size="14.00"> Menu</text>
</g>
<!-- main&#45;&gt;joingame -->
<g id="edge7" class="edge">
<title>main&#45;&gt;joingame</title>
<path fill="none" stroke="black" d="M363.04,-663.65C348.53,-654.16 333.64,-644.33 319.19,-634.71"/>
<polygon fill="black" stroke="black" points="321.29,-631.91 311.03,-629.27 317.41,-637.73 321.29,-631.91"/>
</g>
<!-- credits -->
<g id="node6" class="node">
<title>credits</title>
<polygon fill="none" stroke="black" points="581.95,-628 351.95,-628 351.95,-498 581.95,-498 581.95,-628"/>
<image xlink:href="creditsmenu.png" width="230px" height="129.328px" preserveAspectRatio="xMinYMin meet" x="351.953" y="-627.664"/>
<text text-anchor="middle" x="466.95" y="-559.3" font-family="Source Code Variable,sans-serif" font-size="14.00">credits</text>
<text text-anchor="middle" x="301.95" y="-631.8" font-family="Source Code Variable,sans-serif" font-size="14.00">Credits Menu</text>
</g>
<!-- main&#45;&gt;credits -->
<g id="edge16" class="edge">
<title>main&#45;&gt;credits</title>
<path fill="none" stroke="black" d="M460.34,-663.65C460.22,-655.79 460.18,-647.69 460.22,-639.67"/>
<polygon fill="black" stroke="black" points="463.72,-639.98 460.33,-629.94 456.72,-639.91 463.72,-639.98"/>
</g>
<!-- options -->
<g id="node7" class="node">
<title>options</title>
<polygon fill="none" stroke="black" points="381.95,-130 151.95,-130 151.95,0 381.95,0 381.95,-130"/>
<image xlink:href="optionsmenu.png" width="230px" height="129.328px" preserveAspectRatio="xMinYMin meet" x="151.953" y="-129.664"/>
<text text-anchor="middle" x="266.95" y="-61.3" font-family="Source Code Variable,sans-serif" font-size="14.00">options</text>
<text text-anchor="middle" x="101.95" y="-133.8" font-family="Source Code Variable,sans-serif" font-size="14.00">Options Menu</text>
</g>
<!-- main&#45;&gt;options -->
<g id="edge11" class="edge">
<title>main&#45;&gt;options</title>
<path fill="none" stroke="black" d="M351.92,-713.62C251.84,-698.1 118.05,-669.86 85.95,-628 -38.98,-465.05 -16.44,-343.98 85.95,-166 98.99,-143.34 119.35,-125.34 141.8,-111.22"/>
<polygon fill="black" stroke="black" points="143.45,-114.31 150.24,-106.18 139.86,-108.3 143.45,-114.31"/>
</g>
<!-- newgame&#45;&gt;main -->
<g id="edge10" class="edge">
<title>newgame&#45;&gt;main</title>
<path fill="none" stroke="black" d="M624.13,-628.43C609.92,-637.93 595.09,-647.76 580.45,-657.37"/>
<polygon fill="black" stroke="black" points="578.58,-654.41 572.13,-662.82 582.41,-660.27 578.58,-654.41"/>
</g>
<!-- gameview -->
<g id="node4" class="node">
<title>gameview</title>
<polygon fill="none" stroke="black" points="457.95,-462 227.95,-462 227.95,-332 457.95,-332 457.95,-462"/>
<image xlink:href="gameview.png" width="230px" height="129.328px" preserveAspectRatio="xMinYMin meet" x="227.953" y="-461.664"/>
<text text-anchor="middle" x="342.95" y="-393.3" font-family="Source Code Variable,sans-serif" font-size="14.00">gameview</text>
<text text-anchor="middle" x="190.45" y="-465.8" font-family="Source Code Variable,sans-serif" font-size="14.00">Game View</text>
</g>
<!-- newgame&#45;&gt;gameview -->
<g id="edge5" class="edge">
<title>newgame&#45;&gt;gameview</title>
<path fill="none" stroke="black" d="M599.62,-502.03C596.71,-500.66 593.82,-499.31 590.95,-498 551.73,-480.02 508.3,-461.91 468.88,-446.14"/>
<polygon fill="black" stroke="black" points="470.41,-442.98 459.82,-442.53 467.82,-449.48 470.41,-442.98"/>
</g>
<!-- joingame&#45;&gt;main -->
<g id="edge8" class="edge">
<title>joingame&#45;&gt;main</title>
<path fill="none" stroke="black" d="M322.99,-628.43C337.51,-637.93 352.4,-647.76 366.84,-657.37"/>
<polygon fill="black" stroke="black" points="364.74,-660.18 375,-662.81 368.62,-654.35 364.74,-660.18"/>
</g>
<!-- joingame&#45;&gt;gameview -->
<g id="edge6" class="edge">
<title>joingame&#45;&gt;gameview</title>
<path fill="none" stroke="black" d="M267.61,-497.65C274.1,-489.06 280.8,-480.2 287.41,-471.47"/>
<polygon fill="black" stroke="black" points="290.09,-473.72 293.32,-463.64 284.5,-469.5 290.09,-473.72"/>
</g>
<!-- pause -->
<g id="node5" class="node">
<title>pause</title>
<polygon fill="none" stroke="black" points="581.95,-296 351.95,-296 351.95,-166 581.95,-166 581.95,-296"/>
<image xlink:href="pausemenu.png" width="230px" height="129.328px" preserveAspectRatio="xMinYMin meet" x="351.953" y="-295.664"/>
<text text-anchor="middle" x="466.95" y="-227.3" font-family="Source Code Variable,sans-serif" font-size="14.00">pause</text>
<text text-anchor="middle" x="310.45" y="-299.8" font-family="Source Code Variable,sans-serif" font-size="14.00">Pause Menu</text>
</g>
<!-- gameview&#45;&gt;pause -->
<g id="edge3" class="edge">
<title>gameview&#45;&gt;pause</title>
<path fill="none" stroke="black" d="M385,-331.65C391.35,-323.06 398.02,-314.2 404.69,-305.47"/>
<polygon fill="black" stroke="black" points="407.39,-307.69 410.71,-297.63 401.84,-303.43 407.39,-307.69"/>
</g>
<!-- gameshipstat -->
<g id="node8" class="node">
<title>gameshipstat</title>
<polygon fill="none" stroke="black" points="333.95,-296 103.95,-296 103.95,-166 333.95,-166 333.95,-296"/>
<image xlink:href="gameshipmenu.png" width="230px" height="129.328px" preserveAspectRatio="xMinYMin meet" x="103.953" y="-295.664"/>
<text text-anchor="middle" x="218.95" y="-227.3" font-family="Source Code Variable,sans-serif" font-size="14.00">gameshipstat</text>
<text text-anchor="middle" x="58.45" y="-314.8" font-family="Source Code Variable,sans-serif" font-size="14.00">Game Ship </text>
<text text-anchor="middle" x="58.45" y="-299.8" font-family="Source Code Variable,sans-serif" font-size="14.00"> Stats Menu</text>
</g>
<!-- gameview&#45;&gt;gameshipstat -->
<g id="edge2" class="edge">
<title>gameview&#45;&gt;gameshipstat</title>
<path fill="none" stroke="black" d="M287.69,-331.65C281.06,-323.06 274.32,-314.2 267.78,-305.47"/>
<polygon fill="black" stroke="black" points="270.74,-303.58 261.96,-297.64 265.12,-307.76 270.74,-303.58"/>
</g>
<!-- pause&#45;&gt;main -->
<g id="edge15" class="edge">
<title>pause&#45;&gt;main</title>
<path fill="none" stroke="black" d="M582.21,-284.94C725.65,-358.09 940.11,-496.06 838.95,-628 808.82,-667.31 689,-694.61 593.38,-710.64"/>
<polygon fill="black" stroke="black" points="592.93,-707.16 583.63,-712.24 594.07,-714.07 592.93,-707.16"/>
</g>
<!-- pause&#45;&gt;gameview -->
<g id="edge4" class="edge">
<title>pause&#45;&gt;gameview</title>
<path fill="none" stroke="black" d="M424.85,-296.43C418.49,-305.02 411.82,-313.89 405.15,-322.62"/>
<polygon fill="black" stroke="black" points="402.45,-320.39 399.14,-330.45 408,-324.65 402.45,-320.39"/>
</g>
<!-- pause&#45;&gt;options -->
<g id="edge14" class="edge">
<title>pause&#45;&gt;options</title>
<path fill="none" stroke="black" d="M381.87,-165.65C370.47,-156.43 358.81,-146.89 347.49,-137.54"/>
<polygon fill="black" stroke="black" points="350.01,-135.08 340.08,-131.4 345.55,-140.47 350.01,-135.08"/>
</g>
<!-- credits&#45;&gt;main -->
<g id="edge17" class="edge">
<title>credits&#45;&gt;main</title>
<path fill="none" stroke="black" d="M473.56,-628.43C473.69,-636.3 473.73,-644.4 473.68,-652.41"/>
<polygon fill="black" stroke="black" points="470.19,-652.1 473.58,-662.14 477.19,-652.18 470.19,-652.1"/>
</g>
<!-- options&#45;&gt;main -->
<g id="edge12" class="edge">
<title>options&#45;&gt;main</title>
<path fill="none" stroke="black" d="M151.84,-116.24C132.78,-129.53 115.49,-145.94 103.95,-166 1.56,-343.98 -20.98,-465.05 103.95,-628 133.33,-666.31 247.89,-693.22 340.6,-709.4"/>
<polygon fill="black" stroke="black" points="339.85,-712.82 350.3,-711.06 341.04,-705.92 339.85,-712.82"/>
</g>
<!-- options&#45;&gt;pause -->
<g id="edge13" class="edge">
<title>options&#45;&gt;pause</title>
<path fill="none" stroke="black" d="M352.14,-130.43C363.54,-139.66 375.2,-149.19 386.51,-158.55"/>
<polygon fill="black" stroke="black" points="383.99,-161 393.93,-164.69 388.46,-155.61 383.99,-161"/>
</g>
<!-- gameshipstat&#45;&gt;gameview -->
<g id="edge1" class="edge">
<title>gameshipstat&#45;&gt;gameview</title>
<path fill="none" stroke="black" d="M274.28,-296.43C280.91,-305.02 287.65,-313.89 294.19,-322.62"/>
<polygon fill="black" stroke="black" points="291.23,-324.51 300.01,-330.44 296.84,-320.33 291.23,-324.51"/>
</g>
</g>
</svg>
