<?xml version="1.0" encoding="UTF-8" standalone="no"?>
<!DOCTYPE svg PUBLIC "-//W3C//DTD SVG 1.1//EN"
 "http://www.w3.org/Graphics/SVG/1.1/DTD/svg11.dtd">
<!-- Generated by graphviz version 7.0.6 (0)
 -->
<!-- Title: G Pages: 1 -->
<svg width="829pt" height="442pt"
 viewBox="0.00 0.00 829.00 442.00" xmlns="http://www.w3.org/2000/svg" xmlns:xlink="http://www.w3.org/1999/xlink">
<g id="graph0" class="graph" transform="scale(1 1) rotate(0) translate(4 438)">
<title>G</title>
<polygon fill="white" stroke="none" points="-4,4 -4,-438 825,-438 825,4 -4,4"/>
<g id="clust1" class="cluster">
<title>clusterNormalGame</title>
<polygon fill="lightgrey" stroke="lightgrey" points="8,-152 8,-371 647,-371 647,-152 8,-152"/>
<text text-anchor="middle" x="327.5" y="-357.4" font-family="Times,serif" font-size="12.00">Normal Game Distribution</text>
</g>
<g id="clust2" class="cluster">
<title>clusterDedicatedServer</title>
<polygon fill="lightgrey" stroke="lightgrey" points="655,-298 655,-371 813,-371 813,-298 655,-298"/>
<text text-anchor="middle" x="734" y="-357.4" font-family="Times,serif" font-size="12.00">Dedicated Server Distribution</text>
</g>
<g id="clust3" class="cluster">
<title>clusterServer</title>
<polygon fill="lightpink" stroke="lightpink" points="600,-79 600,-131 762,-131 762,-79 600,-79"/>
</g>
<g id="clust4" class="cluster">
<title>clusterClient</title>
<polygon fill="lightpink" stroke="lightpink" points="430,-79 430,-131 592,-131 592,-79 430,-79"/>
</g>
<!-- StartGame -->
<g id="node1" class="node">
<title>StartGame</title>
<ellipse fill="none" stroke="black" cx="608" cy="-416" rx="59.29" ry="18"/>
<text text-anchor="middle" x="608" y="-412.3" font-family="Source Code Variable,sans-serif" font-size="14.00">StartGame</text>
</g>
<!-- CheckClient -->
<g id="node2" class="node">
<title>CheckClient</title>
<ellipse fill="none" stroke="black" cx="475" cy="-324" rx="69.59" ry="18"/>
<text text-anchor="middle" x="475" y="-320.3" font-family="Source Code Variable,sans-serif" font-size="14.00">CheckClient</text>
</g>
<!-- StartGame&#45;&gt;CheckClient -->
<g id="edge9" class="edge">
<title>StartGame&#45;&gt;CheckClient</title>
<path fill="none" stroke="black" d="M584.53,-399.12C563.42,-384.84 532.19,-363.7 508.46,-347.65"/>
<polygon fill="black" stroke="black" points="510.63,-344.89 500.39,-342.18 506.71,-350.68 510.63,-344.89"/>
</g>
<!-- CheckServer -->
<g id="node8" class="node">
<title>CheckServer</title>
<ellipse fill="none" stroke="black" cx="733" cy="-324" rx="69.59" ry="18"/>
<text text-anchor="middle" x="733" y="-320.3" font-family="Source Code Variable,sans-serif" font-size="14.00">CheckServer</text>
</g>
<!-- StartGame&#45;&gt;CheckServer -->
<g id="edge10" class="edge">
<title>StartGame&#45;&gt;CheckServer</title>
<path fill="none" stroke="black" d="M630.35,-398.91C650.04,-384.73 678.97,-363.9 701.1,-347.97"/>
<polygon fill="black" stroke="black" points="703.13,-350.82 709.2,-342.14 699.04,-345.14 703.13,-350.82"/>
</g>
<!-- PresentStartMenu -->
<g id="node3" class="node">
<title>PresentStartMenu</title>
<ellipse fill="none" stroke="black" cx="278" cy="-251" rx="96.68" ry="18"/>
<text text-anchor="middle" x="278" y="-247.3" font-family="Source Code Variable,sans-serif" font-size="14.00">PresentStartMenu</text>
</g>
<!-- CheckClient&#45;&gt;PresentStartMenu -->
<g id="edge5" class="edge">
<title>CheckClient&#45;&gt;PresentStartMenu</title>
<path fill="none" stroke="black" d="M435.61,-308.8C405.85,-298.08 364.67,-283.23 331.86,-271.41"/>
<polygon fill="black" stroke="black" points="333.1,-268.14 322.51,-268.04 330.73,-274.72 333.1,-268.14"/>
</g>
<!-- OptionsMenu -->
<g id="node4" class="node">
<title>OptionsMenu</title>
<ellipse fill="none" stroke="black" cx="86" cy="-178" rx="69.59" ry="18"/>
<text text-anchor="middle" x="86" y="-174.3" font-family="Source Code Variable,sans-serif" font-size="14.00">OptionsMenu</text>
</g>
<!-- PresentStartMenu&#45;&gt;OptionsMenu -->
<g id="edge1" class="edge">
<title>PresentStartMenu&#45;&gt;OptionsMenu</title>
<path fill="none" stroke="black" d="M231.65,-234.94C201.2,-224.18 161.65,-209.6 131.4,-198.03"/>
<polygon fill="black" stroke="black" points="132.71,-194.78 122.12,-194.46 130.2,-201.32 132.71,-194.78"/>
</g>
<!-- QuitGame -->
<g id="node5" class="node">
<title>QuitGame</title>
<ellipse fill="none" stroke="black" cx="227" cy="-178" rx="53.89" ry="18"/>
<text text-anchor="middle" x="227" y="-174.3" font-family="Source Code Variable,sans-serif" font-size="14.00">QuitGame</text>
</g>
<!-- PresentStartMenu&#45;&gt;QuitGame -->
<g id="edge2" class="edge">
<title>PresentStartMenu&#45;&gt;QuitGame</title>
<path fill="none" stroke="black" d="M265.65,-232.81C259.62,-224.41 252.22,-214.11 245.52,-204.79"/>
<polygon fill="black" stroke="black" points="248.44,-202.85 239.76,-196.77 242.76,-206.93 248.44,-202.85"/>
</g>
<!-- JoinServer -->
<g id="node6" class="node">
<title>JoinServer</title>
<ellipse fill="none" stroke="black" cx="363" cy="-178" rx="64.19" ry="18"/>
<text text-anchor="middle" x="363" y="-174.3" font-family="Source Code Variable,sans-serif" font-size="14.00">JoinServer</text>
</g>
<!-- PresentStartMenu&#45;&gt;JoinServer -->
<g id="edge3" class="edge">
<title>PresentStartMenu&#45;&gt;JoinServer</title>
<path fill="none" stroke="black" d="M298.14,-233.17C309.02,-224.09 322.63,-212.72 334.56,-202.75"/>
<polygon fill="black" stroke="black" points="336.7,-205.53 342.13,-196.43 332.21,-200.16 336.7,-205.53"/>
</g>
<!-- StartMixedClient -->
<g id="node7" class="node">
<title>StartMixedClient</title>
<ellipse fill="none" stroke="black" cx="542" cy="-178" rx="96.68" ry="18"/>
<text text-anchor="middle" x="542" y="-174.3" font-family="Source Code Variable,sans-serif" font-size="14.00">StartMixedClient</text>
</g>
<!-- PresentStartMenu&#45;&gt;StartMixedClient -->
<g id="edge4" class="edge">
<title>PresentStartMenu&#45;&gt;StartMixedClient</title>
<path fill="none" stroke="black" d="M331.42,-235.63C373.65,-224.28 432.74,-208.38 477.58,-196.32"/>
<polygon fill="black" stroke="black" points="478.45,-199.72 487.19,-193.74 476.63,-192.96 478.45,-199.72"/>
</g>
<!-- OptionsMenu&#45;&gt;PresentStartMenu -->
<g id="edge6" class="edge">
<title>OptionsMenu&#45;&gt;PresentStartMenu</title>
<path fill="none" stroke="black" d="M128.25,-192.61C158.33,-203.19 198.71,-218.04 229.99,-229.98"/>
<polygon fill="black" stroke="black" points="228.65,-233.21 239.24,-233.52 231.16,-226.67 228.65,-233.21"/>
</g>
<!-- Client -->
<g id="node10" class="node">
<title>Client</title>
<ellipse fill="none" stroke="black" cx="481" cy="-105" rx="42.79" ry="18"/>
<text text-anchor="middle" x="481" y="-101.3" font-family="Source Code Variable,sans-serif" font-size="14.00">Client</text>
</g>
<!-- JoinServer&#45;&gt;Client -->
<g id="edge12" class="edge">
<title>JoinServer&#45;&gt;Client</title>
<path fill="none" stroke="black" d="M389.19,-161.24C406.37,-150.9 429.01,-137.28 447.5,-126.16"/>
<polygon fill="black" stroke="black" points="449.23,-129.2 455.99,-121.05 445.62,-123.2 449.23,-129.2"/>
</g>
<!-- Server -->
<g id="node9" class="node">
<title>Server</title>
<ellipse fill="none" stroke="black" cx="651" cy="-105" rx="42.79" ry="18"/>
<text text-anchor="middle" x="651" y="-101.3" font-family="Source Code Variable,sans-serif" font-size="14.00">Server</text>
</g>
<!-- StartMixedClient&#45;&gt;Server -->
<g id="edge13" class="edge">
<title>StartMixedClient&#45;&gt;Server</title>
<path fill="none" stroke="black" d="M567.83,-160.17C583.3,-150.1 603.09,-137.21 619.47,-126.54"/>
<polygon fill="black" stroke="black" points="620.94,-129.76 627.4,-121.37 617.12,-123.89 620.94,-129.76"/>
</g>
<!-- StartMixedClient&#45;&gt;Client -->
<g id="edge14" class="edge">
<title>StartMixedClient&#45;&gt;Client</title>
<path fill="none" stroke="black" d="M527.23,-159.81C519.75,-151.1 510.53,-140.37 502.3,-130.79"/>
<polygon fill="black" stroke="black" points="504.95,-128.51 495.78,-123.2 499.64,-133.07 504.95,-128.51"/>
</g>
<!-- CheckServer&#45;&gt;Server -->
<g id="edge11" class="edge">
<title>CheckServer&#45;&gt;Server</title>
<path fill="none" stroke="black" d="M726.43,-305.61C712.24,-268.06 678.63,-179.13 661.48,-133.72"/>
<polygon fill="black" stroke="black" points="664.83,-132.71 658.02,-124.59 658.29,-135.18 664.83,-132.71"/>
</g>
<!-- Server&#45;&gt;Server -->
<g id="edge7" class="edge">
<title>Server&#45;&gt;Server</title>
<path fill="none" stroke="black" d="M691.12,-111.82C702.83,-111.59 711.9,-109.31 711.9,-105 711.9,-102.24 708.17,-100.31 702.42,-99.22"/>
<polygon fill="black" stroke="black" points="702.9,-95.75 692.62,-98.32 702.26,-102.72 702.9,-95.75"/>
<text text-anchor="middle" x="732.9" y="-101.3" font-family="Times,serif" font-size="14.00">Process</text>
</g>
<!-- EndProcess -->
<g id="node11" class="node">
<title>EndProcess</title>
<ellipse fill="none" stroke="black" cx="566" cy="-18" rx="64.19" ry="18"/>
<text text-anchor="middle" x="566" y="-14.3" font-family="Source Code Variable,sans-serif" font-size="14.00">EndProcess</text>
</g>
<!-- Server&#45;&gt;EndProcess -->
<g id="edge15" class="edge">
<title>Server&#45;&gt;EndProcess</title>
<path fill="none" stroke="black" d="M635.01,-88.01C622.55,-75.55 605.02,-58.02 590.75,-43.75"/>
<polygon fill="black" stroke="black" points="593.4,-41.45 583.86,-36.86 588.45,-46.4 593.4,-41.45"/>
<text text-anchor="middle" x="629.5" y="-57.8" font-family="Times,serif" font-size="14.00">QUIT</text>
</g>
<!-- Client&#45;&gt;Client -->
<g id="edge8" class="edge">
<title>Client&#45;&gt;Client</title>
<path fill="none" stroke="black" d="M521.12,-111.82C532.83,-111.59 541.9,-109.31 541.9,-105 541.9,-102.24 538.17,-100.31 532.42,-99.22"/>
<polygon fill="black" stroke="black" points="532.9,-95.75 522.62,-98.32 532.26,-102.72 532.9,-95.75"/>
<text text-anchor="middle" x="562.9" y="-101.3" font-family="Times,serif" font-size="14.00">Process</text>
</g>
<!-- Client&#45;&gt;EndProcess -->
<g id="edge16" class="edge">
<title>Client&#45;&gt;EndProcess</title>
<path fill="none" stroke="black" d="M496.99,-88.01C509.45,-75.55 526.98,-58.02 541.25,-43.75"/>
<polygon fill="black" stroke="black" points="543.55,-46.4 548.14,-36.86 538.6,-41.45 543.55,-46.4"/>
<text text-anchor="middle" x="544.5" y="-57.8" font-family="Times,serif" font-size="14.00">QUIT</text>
</g>
</g>
</svg>
