<?xml version="1.0" encoding="UTF-8" standalone="no"?>
<!DOCTYPE svg PUBLIC "-//W3C//DTD SVG 1.1//EN"
 "http://www.w3.org/Graphics/SVG/1.1/DTD/svg11.dtd">
<!-- Generated by graphviz version 7.0.6 (0)
 -->
<!-- Title: G Pages: 1 -->
<svg width="1647pt" height="461pt"
 viewBox="0.00 0.00 1647.00 461.48" xmlns="http://www.w3.org/2000/svg" xmlns:xlink="http://www.w3.org/1999/xlink">
<g id="graph0" class="graph" transform="scale(1 1) rotate(0) translate(4 457.48)">
<title>G</title>
<polygon fill="white" stroke="none" points="-4,4 -4,-457.48 1643,-457.48 1643,4 -4,4"/>
<g id="clust1" class="cluster">
<title>clusterMixed</title>
<polygon fill="lightgrey" stroke="black" points="8,-8 8,-445.48 1631,-445.48 1631,-8 8,-8"/>
<text text-anchor="middle" x="819.5" y="-431.88" font-family="Source Code Variable,sans-serif" font-size="12.00">Singleplayer / Mixed client </text>
<text text-anchor="middle" x="819.5" y="-418.88" font-family="Source Code Variable,sans-serif" font-size="12.00"> Runs BOTH the client and the server listening on localhost</text>
</g>
<g id="clust2" class="cluster">
<title>clusterClient</title>
<polygon fill="white" stroke="white" points="495,-16 495,-394.61 1623,-394.61 1623,-16 495,-16"/>
<text text-anchor="middle" x="1059" y="-381.01" font-family="Source Code Variable,sans-serif" font-size="12.00">Client</text>
</g>
<g id="clust4" class="cluster">
<title>clusterPlayer</title>
<polygon fill="lightgray" stroke="lightgray" points="990,-24 990,-365.61 1615,-365.61 1615,-24 990,-24"/>
<text text-anchor="middle" x="1302.5" y="-352.01" font-family="Source Code Variable,sans-serif" font-size="12.00">Player </text>
<text text-anchor="middle" x="1302.5" y="-339.01" font-family="Source Code Variable,sans-serif" font-size="12.00"> !Player Camera&#39;s translation is ALWAYS (0,0,0)!</text>
</g>
<g id="clust6" class="cluster">
<title>clusterPlayerData</title>
<polygon fill="white" stroke="white" points="998,-32 998,-118 1607,-118 1607,-32 998,-32"/>
<text text-anchor="middle" x="1302.5" y="-104.4" font-family="Source Code Variable,sans-serif" font-size="12.00">Player </text>
<text text-anchor="middle" x="1302.5" y="-91.4" font-family="Source Code Variable,sans-serif" font-size="12.00"> !Player Camera&#39;s translation is ALWAYS (0,0,0)!</text>
</g>
<g id="clust7" class="cluster">
<title>clusterServer</title>
<polygon fill="white" stroke="white" points="16,-24 16,-403.48 487,-403.48 487,-24 16,-24"/>
<text text-anchor="middle" x="251.5" y="-389.88" font-family="Source Code Variable,sans-serif" font-size="12.00">Server</text>
</g>
<g id="clust8" class="cluster">
<title>clusterPhysicsSimulation</title>
<polygon fill="white" stroke="white" points="205,-32 205,-374.48 479,-374.48 479,-32 205,-32"/>
<text text-anchor="middle" x="342" y="-360.88" font-family="Source Code Variable,sans-serif" font-size="12.00">Celestial physics </text>
<text text-anchor="middle" x="342" y="-347.88" font-family="Source Code Variable,sans-serif" font-size="12.00"> simulation loop</text>
</g>
<!-- OShift -->
<g id="node1" class="node">
<title>OShift</title>
<ellipse fill="none" stroke="black" cx="832" cy="-305.61" rx="150.27" ry="18"/>
<text text-anchor="middle" x="832" y="-301.91" font-family="Source Code Variable,sans-serif" font-size="14.00">Continuous Floating Origin</text>
</g>
<!-- Renderer -->
<g id="node2" class="node">
<title>Renderer</title>
<ellipse fill="none" stroke="black" cx="856" cy="-200.87" rx="105.22" ry="26.74"/>
<text text-anchor="middle" x="856" y="-204.67" font-family="Source Code Variable,sans-serif" font-size="14.00">Client renderer </text>
<text text-anchor="middle" x="856" y="-189.67" font-family="Source Code Variable,sans-serif" font-size="14.00"> (f32)</text>
</g>
<!-- OShift&#45;&gt;Renderer -->
<g id="edge16" class="edge">
<title>OShift&#45;&gt;Renderer</title>
<path fill="none" stroke="black" d="M836.07,-287.18C839.16,-273.97 843.51,-255.34 847.36,-238.86"/>
<polygon fill="black" stroke="black" points="850.71,-239.89 849.58,-229.36 843.9,-238.3 850.71,-239.89"/>
<text text-anchor="middle" x="878.5" y="-249.54" font-family="Source Code Variable,sans-serif" font-size="14.00">Position</text>
</g>
<!-- FarRender -->
<g id="node3" class="node">
<title>FarRender</title>
<ellipse fill="none" stroke="black" cx="621" cy="-58" rx="118.08" ry="18"/>
<text text-anchor="middle" x="621" y="-54.3" font-family="Source Code Variable,sans-serif" font-size="14.00">Faraway obj renderer</text>
</g>
<!-- Renderer&#45;&gt;FarRender -->
<g id="edge1" class="edge">
<title>Renderer&#45;&gt;FarRender</title>
<path fill="none" stroke="black" d="M865.98,-174.03C868.44,-163.74 869.31,-151.99 865,-142"/>
<path fill="none" stroke="black" d="M865,-140C854.61,-115.91 773.99,-126 749,-118 718.82,-108.34 686.42,-93.36 661.77,-80.91"/>
<polygon fill="black" stroke="black" points="663.55,-77.89 653.05,-76.44 660.35,-84.12 663.55,-77.89"/>
</g>
<!-- NearRender -->
<g id="node4" class="node">
<title>NearRender</title>
<ellipse fill="none" stroke="black" cx="870" cy="-58" rx="112.38" ry="18"/>
<text text-anchor="middle" x="870" y="-54.3" font-family="Source Code Variable,sans-serif" font-size="14.00">Nearby obj renderer</text>
</g>
<!-- Renderer&#45;&gt;NearRender -->
<g id="edge2" class="edge">
<title>Renderer&#45;&gt;NearRender</title>
<path fill="none" stroke="black" d="M865,-140C857.86,-123.45 859.11,-103.21 862.14,-87.1"/>
<polygon fill="black" stroke="black" points="865.48,-88.21 864.24,-77.69 858.64,-86.69 865.48,-88.21"/>
</g>
<!-- InputSys -->
<g id="node5" class="node">
<title>InputSys</title>
<ellipse fill="none" stroke="black" cx="1382" cy="-305.61" rx="75.29" ry="18"/>
<text text-anchor="middle" x="1382" y="-301.91" font-family="Source Code Variable,sans-serif" font-size="14.00">Input System</text>
</g>
<!-- PTranslation -->
<g id="node6" class="node">
<title>PTranslation</title>
<ellipse fill="none" stroke="black" cx="1079" cy="-200.87" rx="75.29" ry="18"/>
<text text-anchor="middle" x="1079" y="-197.17" font-family="Source Code Variable,sans-serif" font-size="14.00">PTranslation</text>
</g>
<!-- InputSys&#45;&gt;PTranslation -->
<g id="edge12" class="edge">
<title>InputSys&#45;&gt;PTranslation</title>
<path fill="none" stroke="black" d="M1353.9,-288.67C1337.96,-279.25 1317.9,-266.76 1301,-254.24"/>
<path fill="none" stroke="black" d="M1301,-252.24C1298.07,-250.07 1299.15,-247.57 1296,-245.74 1244.77,-216.05 1221.84,-240.4 1164,-227.74 1153.49,-225.44 1142.39,-222.47 1131.81,-219.37"/>
<polygon fill="black" stroke="black" points="1133.05,-216.09 1122.47,-216.55 1131.03,-222.79 1133.05,-216.09"/>
</g>
<!-- PRotation -->
<g id="node7" class="node">
<title>PRotation</title>
<ellipse fill="none" stroke="black" cx="1232" cy="-200.87" rx="59.29" ry="18"/>
<text text-anchor="middle" x="1232" y="-197.17" font-family="Source Code Variable,sans-serif" font-size="14.00">PRotation</text>
</g>
<!-- InputSys&#45;&gt;PRotation -->
<g id="edge13" class="edge">
<title>InputSys&#45;&gt;PRotation</title>
<path fill="none" stroke="black" d="M1301,-252.24C1298.07,-250.07 1298.65,-248.25 1296,-245.74 1287.49,-237.68 1277.37,-230.04 1267.72,-223.45"/>
<polygon fill="black" stroke="black" points="1269.84,-220.66 1259.57,-218.08 1265.99,-226.5 1269.84,-220.66"/>
</g>
<!-- POnboardComputer -->
<g id="node8" class="node">
<title>POnboardComputer</title>
<ellipse fill="none" stroke="black" cx="1406" cy="-200.87" rx="96.68" ry="18"/>
<text text-anchor="middle" x="1406" y="-197.17" font-family="Source Code Variable,sans-serif" font-size="14.00">POnboardComputer</text>
</g>
<!-- InputSys&#45;&gt;POnboardComputer -->
<g id="edge14" class="edge">
<title>InputSys&#45;&gt;POnboardComputer</title>
<path fill="none" stroke="black" d="M1301,-252.24C1290.39,-244.38 1317.94,-231.43 1347.46,-220.63"/>
<polygon fill="black" stroke="black" points="1348.26,-224.06 1356.51,-217.42 1345.91,-217.47 1348.26,-224.06"/>
</g>
<!-- PTools -->
<g id="node9" class="node">
<title>PTools</title>
<ellipse fill="none" stroke="black" cx="1564" cy="-200.87" rx="42.79" ry="18"/>
<text text-anchor="middle" x="1564" y="-197.17" font-family="Source Code Variable,sans-serif" font-size="14.00">PTools</text>
</g>
<!-- InputSys&#45;&gt;PTools -->
<g id="edge15" class="edge">
<title>InputSys&#45;&gt;PTools</title>
<path fill="none" stroke="black" d="M1410.44,-288.56C1442.65,-270.37 1495.13,-240.75 1529.62,-221.28"/>
<polygon fill="black" stroke="black" points="1530.96,-224.54 1537.95,-216.58 1527.52,-218.45 1530.96,-224.54"/>
<text text-anchor="middle" x="1512" y="-249.54" font-family="Source Code Variable,sans-serif" font-size="14.00">Execute</text>
</g>
<!-- PHydrogen -->
<g id="node10" class="node">
<title>PHydrogen</title>
<ellipse fill="none" stroke="black" cx="1371" cy="-58" rx="59.29" ry="18"/>
<text text-anchor="middle" x="1371" y="-54.3" font-family="Source Code Variable,sans-serif" font-size="14.00">PHydrogen</text>
</g>
<!-- PTranslation&#45;&gt;PHydrogen -->
<g id="edge5" class="edge">
<title>PTranslation&#45;&gt;PHydrogen</title>
<path fill="none" stroke="black" d="M1074.35,-182.54C1070.97,-165.59 1069.23,-140.32 1084,-126 1101.4,-109.13 1279.42,-126.81 1302,-118 1320.13,-110.92 1336.83,-96.94 1349.25,-84.37"/>
<polygon fill="black" stroke="black" points="1351.8,-86.77 1356.1,-77.09 1346.7,-81.97 1351.8,-86.77"/>
<text text-anchor="middle" x="1125.5" y="-144.8" font-family="Source Code Variable,sans-serif" font-size="14.00">RCS </text>
<text text-anchor="middle" x="1125.5" y="-129.8" font-family="Source Code Variable,sans-serif" font-size="14.00"> Has fuel?</text>
</g>
<!-- PRotation&#45;&gt;PHydrogen -->
<g id="edge3" class="edge">
<title>PRotation&#45;&gt;PHydrogen</title>
<path fill="none" stroke="black" d="M1234.29,-182.45C1237.48,-165.44 1244.94,-140.12 1262,-126 1275.97,-114.44 1285.69,-125.93 1302,-118 1319.28,-109.6 1335.74,-95.83 1348.25,-83.7"/>
<polygon fill="black" stroke="black" points="1350.61,-86.29 1355.18,-76.73 1345.65,-81.36 1350.61,-86.29"/>
<text text-anchor="middle" x="1303.5" y="-144.8" font-family="Source Code Variable,sans-serif" font-size="14.00">RCS </text>
<text text-anchor="middle" x="1303.5" y="-129.8" font-family="Source Code Variable,sans-serif" font-size="14.00"> Has fuel?</text>
</g>
<!-- PElectricity -->
<g id="node11" class="node">
<title>PElectricity</title>
<ellipse fill="none" stroke="black" cx="1524" cy="-58" rx="75.29" ry="18"/>
<text text-anchor="middle" x="1524" y="-54.3" font-family="Source Code Variable,sans-serif" font-size="14.00">PElectricity</text>
</g>
<!-- POnboardComputer&#45;&gt;PElectricity -->
<g id="edge9" class="edge">
<title>POnboardComputer&#45;&gt;PElectricity</title>
<path fill="none" stroke="black" d="M1410.24,-182.41C1414.72,-166.53 1422.97,-143.04 1436,-126 1449.68,-108.11 1469.3,-92.55 1486.54,-80.94"/>
<polygon fill="black" stroke="black" points="1488.07,-84.12 1494.55,-75.73 1484.26,-78.25 1488.07,-84.12"/>
</g>
<!-- PTools&#45;&gt;PElectricity -->
<g id="edge7" class="edge">
<title>PTools&#45;&gt;PElectricity</title>
<path fill="none" stroke="black" d="M1537.1,-186.49C1513.49,-174.62 1482.65,-158.74 1481,-156 1467.07,-132.88 1483.18,-104.44 1499.5,-84.35"/>
<polygon fill="black" stroke="black" points="1502.04,-86.76 1505.92,-76.9 1496.74,-82.19 1502.04,-86.76"/>
</g>
<!-- PTools&#45;&gt;PElectricity -->
<g id="edge11" class="edge">
<title>PTools&#45;&gt;PElectricity</title>
<path fill="none" stroke="black" d="M1533.38,-187.95C1519.65,-180.88 1504.8,-170.43 1497,-156 1485.04,-133.87 1495.06,-105.97 1506.13,-85.77"/>
<polygon fill="black" stroke="black" points="1509.06,-87.68 1511.13,-77.29 1503.03,-84.13 1509.06,-87.68"/>
<text text-anchor="middle" x="1547" y="-144.8" font-family="Source Code Variable,sans-serif" font-size="14.00">Decrement </text>
<text text-anchor="middle" x="1547" y="-129.8" font-family="Source Code Variable,sans-serif" font-size="14.00"> Electricity</text>
</g>
<!-- PHydrogen&#45;&gt;PTranslation -->
<g id="edge6" class="edge">
<title>PHydrogen&#45;&gt;PTranslation</title>
<path fill="none" stroke="black" d="M1357.02,-75.7C1344.27,-89.66 1324.08,-108.71 1302,-118 1264.98,-133.57 1249.88,-112.67 1212,-126 1189.33,-133.98 1187.8,-143.95 1167,-156 1152.86,-164.2 1136.98,-172.4 1122.65,-179.46"/>
<polygon fill="black" stroke="black" points="1121.36,-176.19 1113.89,-183.72 1124.42,-182.49 1121.36,-176.19"/>
<text text-anchor="middle" x="1224.5" y="-137.3" font-family="Source Code Variable,sans-serif" font-size="14.00">Y/N</text>
</g>
<!-- PHydrogen&#45;&gt;PRotation -->
<g id="edge4" class="edge">
<title>PHydrogen&#45;&gt;PRotation</title>
<path fill="none" stroke="black" d="M1370.91,-76.27C1369.88,-97.56 1365.02,-133.68 1345,-156 1344.37,-156.7 1309.34,-170.25 1278.46,-182.1"/>
<polygon fill="black" stroke="black" points="1277.26,-178.81 1269.18,-185.66 1279.77,-185.35 1277.26,-178.81"/>
<text text-anchor="middle" x="1373.5" y="-137.3" font-family="Source Code Variable,sans-serif" font-size="14.00">Y/N</text>
</g>
<!-- PElectricity&#45;&gt;POnboardComputer -->
<g id="edge10" class="edge">
<title>PElectricity&#45;&gt;POnboardComputer</title>
<path fill="none" stroke="black" d="M1509.78,-75.97C1489.38,-100.34 1451.62,-145.41 1427.71,-173.96"/>
<polygon fill="black" stroke="black" points="1425.18,-171.52 1421.44,-181.44 1430.55,-176.02 1425.18,-171.52"/>
</g>
<!-- PElectricity&#45;&gt;PTools -->
<g id="edge8" class="edge">
<title>PElectricity&#45;&gt;PTools</title>
<path fill="none" stroke="black" d="M1552.31,-74.91C1569.9,-86.53 1591.01,-104.07 1601,-126 1606.53,-138.13 1605.58,-143.48 1601,-156 1598.44,-163 1594.22,-169.66 1589.52,-175.57"/>
<polygon fill="black" stroke="black" points="1586.91,-173.24 1582.93,-183.06 1592.16,-177.87 1586.91,-173.24"/>
</g>
<!-- SelectedTool -->
<g id="node12" class="node">
<title>SelectedTool</title>
<ellipse fill="none" stroke="black" cx="1218" cy="-58" rx="75.29" ry="18"/>
<text text-anchor="middle" x="1218" y="-54.3" font-family="Source Code Variable,sans-serif" font-size="14.00">SelectedTool</text>
</g>
<!-- Inventory -->
<g id="node13" class="node">
<title>Inventory</title>
<ellipse fill="none" stroke="black" cx="1065" cy="-58" rx="59.29" ry="18"/>
<text text-anchor="middle" x="1065" y="-54.3" font-family="Source Code Variable,sans-serif" font-size="14.00">Inventory</text>
</g>
<!-- PhyServ -->
<g id="node14" class="node">
<title>PhyServ</title>
<ellipse fill="none" stroke="black" cx="110" cy="-305.61" rx="85.59" ry="18"/>
<text text-anchor="middle" x="110" y="-301.91" font-family="Source Code Variable,sans-serif" font-size="14.00">Physics Server</text>
</g>
<!-- IntegServ -->
<g id="node16" class="node">
<title>IntegServ</title>
<g id="a_node16"><a xlink:href="https://github.com/hannorein/rebound" xlink:title="REBOUND Solver">
<ellipse fill="none" stroke="black" cx="299" cy="-200.87" rx="85.59" ry="18"/>
<text text-anchor="middle" x="299" y="-197.17" font-family="Source Code Variable,sans-serif" font-size="14.00">REBOUND Solver</text>
</a>
</g>
</g>
<!-- PhyServ&#45;&gt;IntegServ -->
<g id="edge17" class="edge">
<title>PhyServ&#45;&gt;IntegServ</title>
<path fill="none" stroke="black" d="M139.95,-288.33C172.16,-270.82 223.53,-242.89 259.14,-223.54"/>
<polygon fill="black" stroke="black" points="260.75,-226.65 267.86,-218.8 257.41,-220.5 260.75,-226.65"/>
</g>
<!-- UniverseStor -->
<g id="node15" class="node">
<title>UniverseStor</title>
<ellipse fill="none" stroke="black" cx="342" cy="-305.61" rx="128.89" ry="26.74"/>
<text text-anchor="middle" x="342" y="-309.41" font-family="Source Code Variable,sans-serif" font-size="14.00">Universe Storage </text>
<text text-anchor="middle" x="342" y="-294.41" font-family="Source Code Variable,sans-serif" font-size="14.00"> (64 bit transforms)</text>
</g>
<!-- UniverseStor&#45;&gt;IntegServ -->
<g id="edge18" class="edge">
<title>UniverseStor&#45;&gt;IntegServ</title>
<path fill="none" stroke="black" d="M319.57,-278.97C315.51,-273.27 311.71,-267.04 309,-260.74 304.95,-251.33 302.53,-240.41 301.1,-230.55"/>
<polygon fill="black" stroke="black" points="304.59,-230.26 299.96,-220.73 297.63,-231.07 304.59,-230.26"/>
<text text-anchor="middle" x="400" y="-249.54" font-family="Source Code Variable,sans-serif" font-size="14.00">Transform and Velocity</text>
</g>
<!-- UniverseStori -->
<g id="node17" class="node">
<title>UniverseStori</title>
<ellipse fill="none" stroke="black" cx="294" cy="-58" rx="80.69" ry="18"/>
<text text-anchor="middle" x="294" y="-54.3" font-family="Source Code Variable,sans-serif" font-size="14.00">UniverseStori</text>
</g>
<!-- IntegServ&#45;&gt;UniverseStori -->
<g id="edge19" class="edge">
<title>IntegServ&#45;&gt;UniverseStori</title>
<path fill="none" stroke="black" d="M298.39,-182.6C297.55,-158.94 296.03,-116.15 295.02,-87.66"/>
<polygon fill="black" stroke="black" points="298.52,-87.8 294.67,-77.93 291.53,-88.05 298.52,-87.8"/>
<text text-anchor="middle" x="389" y="-137.3" font-family="Source Code Variable,sans-serif" font-size="14.00">Transform and Velocity</text>
</g>
</g>
</svg>
